<svg width="142" height="62" viewBox="0 0 142 62" fill="none" xmlns="http://www.w3.org/2000/svg">
<path d="M44.9518 43.2068H36.9395C36.9323 43.3552 36.9251 43.5097 36.9179 43.6601C36.8214 45.7316 36.7003 49.919 35.3364 51.2819C34.5625 52.0531 32.5808 52.6901 29.4464 53.1777C24.8347 53.8938 20.1374 53.8938 15.5257 53.1777C12.3903 52.6901 10.4095 52.0531 9.6357 51.2819C8.27175 49.9221 8.15065 45.7296 8.05417 43.6601C8.04699 43.5067 8.0398 43.3572 8.03262 43.2068H0.0192509C-0.0053804 43.8327 -0.007433 44.5798 0.0192509 45.4005C0.154723 49.5849 0.737663 56.5323 2.65787 58.5301C6.17296 62.1906 22.3177 61.9998 22.4819 61.9978H22.4901C22.6544 61.9978 38.7981 62.1906 42.3142 58.5301C44.2334 56.5323 44.8174 49.5849 44.9518 45.3985C44.9795 44.5777 44.9775 43.8307 44.9518 43.2068Z" fill="#F9F9F9"/>
<path d="M42.893 9.80937L36.9323 3.94718L31.6561 9.13704C28.8083 7.74135 25.6676 7.02184 22.486 7.03626C17.5331 7.03626 12.8768 8.71204 9.374 11.7547C5.87123 14.7973 3.9428 18.8424 3.9428 23.1459C3.9428 27.4495 5.87225 31.4966 9.374 34.5362C12.8757 37.5758 17.5331 39.2546 22.486 39.2546C27.439 39.2546 32.0953 37.5788 35.5981 34.5362C39.1009 31.4935 41.0293 27.4485 41.0293 23.1459C41.0293 20.0316 40.0184 17.0536 38.1331 14.4915L42.893 9.80937ZM22.486 33.1118C16.1589 33.1118 11.011 28.6397 11.011 23.1429C11.011 17.6462 16.1589 13.1741 22.486 13.1741C28.8132 13.1741 33.9611 17.6462 33.9611 23.1429C33.9611 28.6397 28.8132 33.1118 22.486 33.1118Z" fill="#F9F9F9"/>
<path d="M50.1664 7.14225C49.277 6.38512 48.8323 5.38403 48.8323 4.13897C48.8323 2.92757 49.277 1.93489 50.1664 1.16093C51.0559 0.386977 52.1335 0 53.3993 0C54.6651 0 55.7427 0.386977 56.6322 1.16093C57.5216 1.93489 57.9664 2.92757 57.9664 4.13897C57.9664 5.3847 57.5302 6.38579 56.6578 7.14225C55.7855 7.89871 54.6993 8.27727 53.3993 8.27794C52.1328 8.27794 51.0552 7.89938 50.1664 7.14225ZM49.4994 39.2698V10.8017H57.2993V39.2698H49.4994Z" fill="#F9F9F9"/>
<path d="M63.765 10.8017H71.5649V11.4074C71.5732 11.8513 71.5126 12.2938 71.3853 12.7198C71.2444 13.1263 71.0267 13.5031 70.7438 13.8302L71.4622 14.335C72.4885 12.8207 73.6089 11.7523 74.8234 11.1298C76.0378 10.5073 77.4832 10.196 79.1595 10.196C83.8456 10.196 86.9074 11.8112 88.3449 15.0416C88.8764 16.1029 89.215 17.2474 89.3456 18.4235C89.4646 19.5676 89.5245 21.1323 89.5252 23.1177V39.2698H81.7766V23.0167C81.7766 21.6034 81.6739 20.4677 81.4687 19.6096C81.2634 18.7516 80.9213 18.0701 80.4424 17.5654C79.6898 16.7921 78.5608 16.4051 77.0556 16.4045C75.2082 16.4045 73.8227 16.9429 72.8991 18.0197C72.4201 18.5917 72.078 19.3489 71.8727 20.2911C71.6675 21.2333 71.5649 22.4783 71.5649 24.0262V39.2698H63.765V10.8017Z" fill="#F9F9F9"/>
<path d="M98.3503 37.7807C97.1872 36.7881 96.6056 35.299 96.6056 33.3137V16.8587H92.5004V10.8017H96.6056V0.757128H104.406V10.8017H109.691V16.8587H104.406V30.8404C104.406 31.5134 104.542 32.0434 104.816 32.4304C105.09 32.8173 105.637 33.0108 106.458 33.0108H109.64V39.2698H103.328C101.173 39.2698 99.5135 38.7734 98.3503 37.7807Z" fill="#F9F9F9"/>
<path d="M119.19 37.9826C116.941 36.7635 115.097 34.9321 113.879 32.708C112.614 30.4366 111.981 27.8203 111.981 24.8591C111.981 21.9995 112.614 19.4589 113.879 17.2373C115.115 15.0458 116.956 13.2433 119.19 12.0384C121.466 10.7933 124.075 10.1708 127.016 10.1708C129.957 10.1708 132.566 10.7933 134.842 12.0384C137.072 13.2397 138.906 15.0437 140.127 17.2373C141.376 19.4582 142.001 21.9988 142 24.8591C142 27.8203 141.376 30.4366 140.127 32.708C138.929 34.929 137.102 36.7611 134.867 37.9826C132.609 39.2284 129.992 39.8509 127.016 39.8502C124.074 39.8502 121.465 39.2277 119.19 37.9826ZM132.045 30.9413C133.311 29.4109 133.944 27.3835 133.944 24.8591C133.944 22.4706 133.311 20.5189 132.045 19.0039C130.779 17.489 129.103 16.7319 127.016 16.7325C124.93 16.7325 123.236 17.4813 121.936 18.9787C120.635 20.4761 119.985 22.4363 119.986 24.8591C119.986 27.3828 120.636 29.4103 121.936 30.9413C123.236 32.4724 124.929 33.238 127.016 33.238C129.103 33.238 130.779 32.4724 132.045 30.9413Z" fill="#F9F9F9"/>
<path d="M52.6727 54.7505C52.0536 54.3681 51.5619 53.8158 51.2584 53.1616C50.9511 52.4657 50.7925 51.715 50.7925 50.9563C50.7925 50.1976 50.9511 49.447 51.2584 48.7511C51.5615 48.1012 52.0509 47.5524 52.6665 47.1722C53.296 46.7798 54.0743 46.583 55.0014 46.5816C56.0708 46.5816 56.9291 46.8448 57.5764 47.3711C58.2236 47.8974 58.6033 48.6057 58.7155 49.4961H56.7297C56.7068 49.303 56.6436 49.1167 56.5442 48.9487C56.4448 48.7808 56.3112 48.6348 56.1518 48.5199C55.8 48.285 55.3811 48.1668 54.9562 48.1827C54.2303 48.1827 53.6709 48.4331 53.2782 48.9338C52.8855 49.4345 52.6891 50.1075 52.6891 50.9528C52.6891 51.8062 52.8855 52.4849 53.2782 52.989C53.6709 53.493 54.2303 53.7451 54.9562 53.7451C55.4427 53.7451 55.8429 53.631 56.157 53.4029C56.471 53.1747 56.6619 52.8325 56.7297 52.3762H58.7155C58.5965 53.2895 58.2164 54.0129 57.5753 54.5466C56.9342 55.0803 56.079 55.3472 55.0096 55.3472C54.0838 55.3472 53.3049 55.1483 52.6727 54.7505Z" fill="#F9F9F9"/>
<path d="M62.3374 46.7472H66.2096C67.0471 46.7472 67.7073 46.9514 68.1904 47.3599C68.6734 47.7684 68.9146 48.4031 68.9139 49.2638C68.9157 49.5713 68.8722 49.8773 68.7846 50.1724C68.7084 50.4403 68.5809 50.6915 68.409 50.9124C68.1462 51.2146 67.8431 51.3653 67.4997 51.3646L67.4432 51.5191C67.5554 51.6124 67.652 51.7224 67.7296 51.8452C67.8178 52.0035 67.8946 52.1678 67.9594 52.3368L69.1387 55.1735H67.2226L65.9171 51.8583H64.1437V55.1705H62.3374V46.7472ZM66.8203 50.0593C67.018 49.8897 67.1172 49.6431 67.1179 49.3194C67.1186 48.9957 67.0194 48.7547 66.8203 48.5966C66.6218 48.431 66.3321 48.3482 65.951 48.3482H64.1437V50.3127H65.951C66.3328 50.3127 66.6222 50.2289 66.8203 50.0593Z" fill="#F9F9F9"/>
<path d="M73.5466 55.1705V46.7472H79.3268V48.3482H75.354V50.1583H78.9224V51.7482H75.354V53.5654H79.3268V55.1664L73.5466 55.1705Z" fill="#F9F9F9"/>
<path d="M83.2329 55.1705L86.2092 46.7472H88.1797L91.1559 55.1705H89.246L88.7328 53.5472H85.6652L85.1521 55.1705H83.2329ZM88.2382 52.0016L87.4982 49.6798C87.3754 49.3168 87.3026 48.9392 87.2816 48.5572H87.102C87.0857 48.9398 87.0167 49.3185 86.8968 49.6828L86.1558 52.0047L88.2382 52.0016Z" fill="#F9F9F9"/>
<path d="M95.3043 46.7472H98.2559L99.5686 51.8956C99.6973 52.3731 99.7605 52.8654 99.7564 53.3594H99.936C99.9332 52.8628 99.9984 52.3681 100.13 51.8886L101.431 46.7401H104.394V55.1634H102.588V49.6212C102.588 49.4193 102.588 49.2174 102.599 49.0155C102.611 48.8136 102.629 48.5633 102.666 48.2544L102.486 48.2322C102.42 48.7003 102.326 49.1644 102.206 49.6222L100.735 55.1644H98.963L97.4923 49.6222C97.372 49.1645 97.2784 48.7004 97.2122 48.2322L97.0326 48.2544C97.0695 48.5633 97.0917 48.817 97.0993 49.0155C97.1075 49.2174 97.1105 49.4193 97.1105 49.6212V55.1634H95.3043V46.7472Z" fill="#F9F9F9"/>
<path d="M109.32 55.1705V46.7472H115.101V48.3482H111.128V50.1583H114.696V51.7482H111.128V53.5654H115.101V55.1664L109.32 55.1705Z" fill="#F9F9F9"/>
<path d="M119.781 46.7472H123.652C124.491 46.7472 125.151 46.9514 125.633 47.3599C126.114 47.7684 126.356 48.4034 126.357 49.2649C126.359 49.5723 126.315 49.8783 126.228 50.1734C126.152 50.4416 126.024 50.6928 125.851 50.9134C125.589 51.2156 125.286 51.3663 124.943 51.3656L124.886 51.5201C124.999 51.6134 125.095 51.7234 125.173 51.8462C125.261 52.0045 125.338 52.1688 125.403 52.3378L126.581 55.1745H124.662L123.361 51.8583H121.588V55.1705H119.782L119.781 46.7472ZM124.263 50.0593C124.461 49.8897 124.56 49.6431 124.561 49.3194C124.562 48.9957 124.463 48.7547 124.263 48.5966C124.066 48.431 123.776 48.3482 123.394 48.3482H121.587V50.3127H123.394C123.772 50.3127 124.065 50.2289 124.263 50.0593Z" fill="#F9F9F9"/>
<path d="M133.203 51.8472L130.105 46.7471H132.227L133.766 49.4526C133.859 49.6045 133.939 49.7631 134.007 49.9271C134.051 50.0572 134.072 50.1938 134.069 50.3309H134.248C134.245 50.1909 134.264 50.0512 134.305 49.917C134.367 49.75 134.446 49.5894 134.54 49.4375L136.079 46.7431H138.201L135.115 51.8431V55.1664H133.207L133.203 51.8472Z" fill="#F9F9F9"/>
</svg>
